#!OML:ASF F:\VICON\USERDATA\INSTALL\rory7\rory7.ASF
:FULLY-SPECIFIED
:DEGREES
1353
root 0.465791 18.8279 2.54794 -3.95211 -5.23125 1.73328
lowerback 5.18752 1.30002 -2.6208
upperback 0.400806 1.54126 -1.41124
thorax -2.52583 0.78883 -0.0947002
lowerneck -10.5436 -2.23592 -6.76074
upperneck 25.1629 -3.59513 7.13495
head 9.95164 -1.5291 3.24648
rclavicle 1.96921e-015 -1.07344e-014
rhumerus -31.0236 40.8285 -95.8612
rradius 98.8324
rwrist -14.3396
rhand -43.5785 15.324
rfingers 7.12502
rthumb -16.4154 -14.0014
lclavicle 1.96921e-015 -1.07344e-014
lhumerus -23.4314 -27.0062 90.6219
lradius 102.128
lwrist -11.8691
lhand -22.6255 17.0065
lfingers 7.12502
lthumb 3.80473 46.9522
rfemur 8.20401 19.4164 16.9959
rtibia 7.80891
rfoot -11.0989 -22.6832
rtoes -6.77017
lfemur 7.06843 -10.9061 -20.0284
ltibia 8.7421
lfoot -11.1783 19.8304
ltoes -5.87179
1354
root 0.468209 18.8288 2.55098 -3.91383 -5.31723 1.66256
lowerback 5.12393 1.31951 -2.52603
upperback 0.383005 1.57516 -1.39469
thorax -2.50705 0.804785 -0.131881
lowerneck -10.393 -2.3023 -6.86215
upperneck 25.0446 -3.67684 7.15682
head 9.88927 -1.57728 3.26001
rclavicle 3.29237e-015 2.90226e-014
rhumerus -31.0723 40.5208 -95.7324
rradius 99.038
rwrist -14.0935
rhand -43.345 15.3516
rfingers 7.12502
rthumb -16.1906 -13.9922
lclavicle 3.29237e-015 2.90226e-014
lhumerus -23.6666 -26.2845 90.5292
lradius 102.035
lwrist -12.5703
lhand -23.6152 18.1309
lfingers 7.12502
lthumb 2.84898 48.0916
rfemur 8.19978 19.4954 17.0589
rtibia 7.75695
rfoot -11.1606 -22.6447
rtoes -6.57705
lfemur 7.05625 -10.8246 -19.9492
ltibia 8.77215
lfoot -11.2627 19.7932
ltoes -5.63409
1355
root 0.469453 18.829 2.55164 -3.89686 -5.41272 1.63559
lowerback 5.09944 1.34609 -2.49037
upperback 0.381124 1.61341 -1.39804
thorax -2.49483 0.823368 -0.157481
lowerneck -10.3109 -2.37036 -6.94911
upperneck 24.9733 -3.77329 7.21998
head 9.85881 -1.62517 3.28491
rclavicle 1.35267e-014 -8.74653e-015
rhumerus -31.089 40.2966 -95.6202
rradius 99.1977
rwrist -13.5118
rhand -43.3607 15.4936
rfingers 7.12502
rthumb -16.2057 -13.849
lclavicle 1.35267e-014 -8.74653e-015
lhumerus -23.8507 -25.6419 90.3844
lradius 101.89
lwrist -13.2223
lhand -24.8616 19.0908
lfingers 7.12502
lthumb 1.64525 49.0642
rfemur 8.228 19.5877 17.0855
rtibia 7.63185
rfoot -11.0768 -22.6584
rtoes -6.71691
lfemur 6.99493 -10.7313 -19.91
ltibia 8.87125
lfoot -11.3482 19.7648
ltoes -5.4826
1356
root 0.468475 18.8283 2.54817 -3.89602 -5.47981 1.58088
lowerback 5.15483 1.34796 -2.48381
upperback 0.355423 1.61404 -1.37932
thorax -2.5527 0.824262 -0.143821
lowerneck -10.1866 -2.44415 -7.04737
upperneck 24.987 -3.87606 7.25506
head 9.85111 -1.68107 3.30309
rclavicle 2.5022e-014 -2.0276e-014
rhumerus -31.178 40.1745 -95.567
rradius 99.3511
rwrist -12.8913
rhand -43.4545 15.4775
rfingers 7.12502
rthumb -16.296 -13.8578
lclavicle 2.5022e-014 -2.0276e-014
lhumerus -24.0887 -24.9401 90.2553
lradius 101.752
lwrist -13.8485
lhand -25.5736 19.9192
lfingers 7.12502
lthumb 0.957618 49.8968
rfemur 8.27836 19.6496 17.1564
rtibia 7.45735
rfoot -10.8555 -22.6887
rtoes -7.01243
lfemur 6.90275 -10.6701 -19.8321
ltibia 9.0135
lfoot -11.425 19.7513
ltoes -5.44642
1357
root 0.46807 18.8266 2.54278 -3.9417 -5.40729 1.5082
lowerback 5.29971 1.2917 -2.46935
upperback 0.328661 1.53483 -1.34648
thorax -2.66066 0.78573 -0.116262
lowerneck -9.87611 -2.52116 -7.23116
upperneck 24.8916 -3.97873 7.31541
head 9.77094 -1.74613 3.34371
rclavicle 1.94001e-014 -3.29983e-014
rhumerus -31.2499 40.0215 -95.4486
rradius 99.4836
rwrist -12.6354
rhand -43.1371 15.4821
rfingers 7.12502
rthumb -15.9904 -13.878
lclavicle 1.94001e-014 -3.29983e-014
lhumerus -24.3679 -24.2867 90.1436
lradius 101.669
lwrist -14.2636
lhand -25.9463 20.3524
lfingers 7.12502
lthumb 0.597619 50.3313
rfemur 8.40182 19.573 17.2585
rtibia 7.31744
rfoot -10.7226 -22.705
rtoes -7.10727
lfemur 6.87428 -10.7496 -19.7548
ltibia 9.12325
lfoot -11.4066 19.7714
ltoes -5.67144
1358
root 0.468564 18.8252 2.53657 -4.06973 -5.25122 1.48472
lowerback 5.54193 1.21728 -2.48156
upperback 0.343186 1.42665 -1.33626
thorax -2.78014 0.732788 -0.0959992
lowerneck -9.56569 -2.58772 -7.40347
upperneck 24.6497 -4.06937 7.40605
head 9.63838 -1.80134 3.39161
rclavicle -2.25931e-014 -7.95139e-016
rhumerus -31.302 39.8869 -95.3433
rradius 99.6304
rwrist -12.1798
rhand -43.0337 14.1234
rfingers 7.12502
rthumb -15.8908 -15.2446
lclavicle -2.25931e-014 -7.95139e-016
lhumerus -24.567 -23.7536 89.993
lradius 101.593
lwrist -14.4531
lhand -26.4576 20.761
lfingers 7.12502
lthumb 0.103758 50.7407
rfemur 8.60298 19.4203 17.3325
rtibia 7.25127
rfoot -10.7085 -22.7153
rtoes -7.19341
lfemur 6.95681 -10.9086 -19.7554
ltibia 9.17834
lfoot -11.3706 19.7873
ltoes -5.87567
1359
root 0.468513 18.8246 2.53115 -4.16623 -5.20398 1.49324
lowerback 5.71583 1.20125 -2.50804
upperback 0.369913 1.39711 -1.35869
thorax -2.84959 0.71857 -0.105463
lowerneck -9.42415 -2.66322 -7.43756
upperneck 24.454 -4.17557 7.43342
head 9.55257 -1.85421 3.39169
rclavicle -7.34261e-015 1.55052e-014
rhumerus -31.3052 39.6467 -95.2467
rradius 99.7404
rwrist -11.9928
rhand -43.1748 13.9954
rfingers 7.12502
rthumb -16.0267 -15.3617
lclavicle -7.34261e-015 1.55052e-014
lhumerus -24.7494 -23.3977 89.8499
lradius 101.598
lwrist -14.4667
lhand -26.8675 21.7611
lfingers 7.12502
lthumb -0.292152 51.7407
rfemur 8.6853 19.3773 17.3615
rtibia 7.29008
rfoot -10.6964 -22.7302
rtoes -7.24645
lfemur 7.045 -10.9567 -19.7737
ltibia 9.15432
lfoot -11.3395 19.7819
ltoes -5.87221
1360
root 0.468677 18.8234 2.5282 -4.18992 -5.21905 1.52244
lowerback 5.76669 1.21633 -2.54672
upperback 0.381475 1.41177 -1.40044
thorax -2.86633 0.726127 -0.129009
lowerneck -9.37827 -2.77447 -7.42482
upperneck 24.3793 -4.32831 7.40609
head 9.53015 -1.92827 3.36108
rclavicle -1.83255e-014 4.37326e-015
rhumerus -31.2981 39.3831 -95.1816
rradius 99.8405
rwrist -11.9472
rhand -43.2523 14.1842
rfingers 7.12502
rthumb -16.1014 -15.1669
lclavicle -1.83255e-014 4.37326e-015
lhumerus -24.9769 -23.2374 89.7476
lradius 101.722
lwrist -14.0855
lhand -27.0563 22.5821
lfingers 7.12502
lthumb -0.474447 52.5614
rfemur 8.63813 19.3959 17.3345
rtibia 7.40279
rfoot -10.756 -22.7337
rtoes -7.07006
lfemur 7.08876 -10.9402 -19.7992
ltibia 9.07502
lfoot -11.2609 19.78
ltoes -5.77909
1361
root 0.470771 18.8242 2.53097 -4.1174 -5.32447 1.56183
lowerback 5.65467 1.25472 -2.58273
upperback 0.367352 1.46329 -1.44015
thorax -2.81892 0.751728 -0.151577
lowerneck -9.32395 -2.9082 -7.44157
upperneck 24.3341 -4.50917 7.37733
head 9.51969 -2.01853 3.33255
rclavicle -8.94531e-016 4.01545e-014
rhumerus -31.3002 39.1676 -95.1186
rradius 99.9016
rwrist -11.9233
rhand -43.3423 14.5908
rfingers 7.12502
rthumb -16.188 -14.7533
lclavicle -8.94531e-016 4.01545e-014
lhumerus -25.1987 -23.2078 89.6653
lradius 101.873
lwrist -13.4304
lhand -27.2443 22.8612
lfingers 7.12502
lthumb -0.656078 52.84
rfemur 8.48245 19.5026 17.2515
rtibia 7.50972
rfoot -10.8883 -22.7087
rtoes -6.80332
lfemur 7.05072 -10.8301 -19.83
ltibia 9.00829
lfoot -11.2487 19.7789
ltoes -5.6637
1362
root 0.47356 18.8275 2.53933 -3.97288 -5.52004 1.55781
lowerback 5.39209 1.31564 -2.55584
upperback 0.370372 1.55529 -1.47683
thorax -2.66852 0.795929 -0.205174
lowerneck -9.27441 -3.07969 -7.61854
upperneck 24.2193 -4.74289 7.48699
head 9.49747 -2.13367 3.37307
rclavicle 1.44181e-014 -1.11319e-014
rhumerus -31.2614 38.9571 -95.0284
rradius 99.9378
rwrist -11.8694
rhand -43.4795 15.1041
rfingers 7.12502
rthumb -16.3201 -14.2291
lclavicle 1.44181e-014 -1.11319e-014
lhumerus -25.3206 -23.3079 89.5419
lradius 102.001
lwrist -12.6203
lhand -27.3886 22.9971
lfingers 7.12502
lthumb -0.795404 52.9753
rfemur 8.27983 19.6923 17.1945
rtibia 7.55936
rfoot -10.9448 -22.6908
rtoes -6.64904
lfemur 6.94246 -10.6321 -19.8063
ltibia 8.99624
lfoot -11.3176 19.7682
ltoes -5.57823
1363
root 0.474635 18.8291 2.54332 -3.89787 -5.60416 1.51179
lowerback 5.26426 1.32874 -2.50881
upperback 0.385128 1.58036 -1.49489
thorax -2.5803 0.807103 -0.248468
lowerneck -9.10874 -3.29842 -8.04171
upperneck 23.9771 -5.03456 7.7469
head 9.42484 -2.28545 3.50095
rclavicle 1.84559e-014 1.35174e-014
rhumerus -31.2222 38.8164 -94.9674
rradius 99.9672
rwrist -11.7222
rhand -43.6756 15.3538
rfingers 7.12502
rthumb -16.5089 -13.9639
lclavicle 1.84559e-014 1.35174e-014
lhumerus -25.4752 -23.4661 89.4534
lradius 102.187
lwrist -11.6338
lhand -27.4311 23.0788
lfingers 7.12502
lthumb -0.836458 53.0569
rfemur 8.20611 19.7692 17.2206
rtibia 7.52918
rfoot -10.8542 -22.7119
rtoes -6.76157
lfemur 6.85953 -10.55 -19.7485
ltibia 9.06164
lfoot -11.3626 19.7634
ltoes -5.53713
1364
root 0.475519 18.8284 2.54274 -3.8781 -5.60443 1.47254
lowerback 5.27035 1.29974 -2.49435
upperback 0.392267 1.54257 -1.49369
thorax -2.57543 0.788051 -0.252489
lowerneck -8.88816 -3.50093 -8.32346
upperneck 23.7068 -5.28629 7.81628
head 9.32192 -2.42671 3.54202
rclavicle 6.59406e-015 -1.86858e-014
rhumerus -31.2201 38.7754 -94.9372
rradius 100.016
rwrist -11.6357
rhand -43.754 14.9887
rfingers 7.12502
rthumb -16.5844 -14.3227
lclavicle 6.59406e-015 -1.86858e-014
lhumerus -25.7868 -23.6316 89.4915
lradius 102.525
lwrist -10.6919
lhand -27.4066 23.1662
lfingers 7.12502
lthumb -0.812758 53.1444
rfemur 8.22324 19.7655 17.2566
rtibia 7.44371
rfoot -10.7524 -22.7352
rtoes -6.93551
lfemur 6.7882 -10.5519 -19.708
ltibia 9.17273
lfoot -11.3867 19.7776
ltoes -5.74441
1365
root 0.477066 18.8288 2.54224 -3.84841 -5.59773 1.45279
lowerback 5.26386 1.26592 -2.5079
upperback 0.411532 1.49765 -1.48665
thorax -2.55181 0.765575 -0.233799
lowerneck -8.78794 -3.67305 -8.43186
upperneck 23.5172 -5.49155 7.75401
head 9.25827 -2.54125 3.51283
rclavicle -1.61823e-015 -2.34566e-014
rhumerus -31.171 38.7672 -94.8681
rradius 100.057
rwrist -11.7208
rhand -43.8391 14.444
rfingers 7.12502
rthumb -16.6663 -14.8605
lclavicle -1.61823e-015 -2.34566e-014
lhumerus -26.1369 -23.8867 89.6189
lradius 102.989
lwrist -9.66906
lhand -27.3302 23.2779
lfingers 7.12502
lthumb -0.739034 53.2563
rfemur 8.25579 19.7565 17.2611
rtibia 7.31656
rfoot -10.7027 -22.7467
rtoes -6.87865
lfemur 6.70381 -10.559 -19.6885
ltibia 9.30228
lfoot -11.4469 19.7766
ltoes -5.97735
1366
root 0.478502 18.8299 2.54207 -3.82861 -5.58407 1.44933
lowerback 5.24648 1.23061 -2.56415
upperback 0.421037 1.44888 -1.46135
thorax -2.5336 0.741815 -0.172089
lowerneck -8.59618 -3.84536 -8.60281
upperneck 23.2895 -5.70205 7.7381
head 9.16808 -2.66112 3.51091
rclavicle -9.88022e-015 -1.31198e-014
rhumerus -31.1212 38.8229 -94.801
rradius 100.037
rwrist -11.7538
rhand -44.0396 14.368
rfingers 7.12502
rthumb -16.8593 -14.9201
lclavicle -9.88022e-015 -1.31198e-014
lhumerus -26.4432 -24.2443 89.7945
lradius 103.435
lwrist -8.58125
lhand -27.2662 23.5097
lfingers 7.12502
lthumb -0.67721 53.4884
rfemur 8.2982 19.7423 17.25
rtibia 7.18305
rfoot -10.6387 -22.7687
rtoes -6.82692
lfemur 6.63943 -10.5716 -19.6906
ltibia 9.42353
lfoot -11.554 19.7476
ltoes -5.78632
1367
root 0.478971 18.8308 2.54242 -3.83636 -5.54942 1.44768
lowerback 5.214 1.19781 -2.64035
upperback 0.441516 1.40322 -1.43528
thorax -2.49604 0.719578 -0.0981862
lowerneck -8.30232 -4.03817 -8.74152
upperneck 22.9799 -5.944 7.69263
head 9.03217 -2.79817 3.49036
rclavicle 1.09922e-014 3.97569e-015
rhumerus -31.0466 38.8884 -94.7445
rradius 99.9904
rwrist -11.7176
rhand -44.0934 14.4281
rfingers 7.12502
rthumb -16.9111 -14.8556
lclavicle 1.09922e-014 3.97569e-015
lhumerus -26.6743 -24.6841 89.9459
lradius 103.773
lwrist -7.68044
lhand -27.2377 23.7413
lfingers 7.12502
lthumb -0.649658 53.72
rfemur 8.35259 19.7076 17.2547
rtibia 7.10084
rfoot -10.6224 -22.7749
rtoes -6.8274
lfemur 6.60499 -10.6058 -19.6953
ltibia 9.50126
lfoot -11.5927 19.7431
ltoes -5.70901
